<svg width="61" height="17" viewBox="0 0 61 17" fill="none" xmlns="http://www.w3.org/2000/svg">
<path d="M0 12.3106V8.58632C0 4.19742 3.48738 0.639512 7.78927 0.639512H11.4397V5.15057H7.99493C6.02145 5.15057 4.42163 6.78275 4.42163 8.79614V12.3106H0Z" fill="white"/>
<path d="M15.8613 5.15057V8.87482C15.8613 13.2637 12.3739 16.8216 8.07205 16.8216H4.42163L4.42163 12.3106L7.86639 12.3106C9.83986 12.3106 11.4397 10.6784 11.4397 8.66501V5.15057H15.8613Z" fill="white"/>
<path d="M32.5445 17C31.5467 17 30.6699 16.7613 29.914 16.284C29.1581 15.7912 28.561 15.0983 28.1225 14.2052C27.6992 13.2966 27.4876 12.2264 27.4876 10.9946C27.4876 10.0707 27.6085 9.23913 27.8504 8.5C28.0923 7.76087 28.44 7.12953 28.8935 6.60598C29.3471 6.08243 29.8838 5.68207 30.5036 5.40489C31.1385 5.12772 31.8415 4.98913 32.6125 4.98913C33.2323 4.98913 33.8068 5.08922 34.3359 5.28941C34.8651 5.47419 35.311 5.74366 35.6739 6.09783V5.17392H39.4155V16.8152H35.6739V15.822C35.4622 16.0684 35.1901 16.284 34.8575 16.4688C34.54 16.6381 34.1848 16.769 33.7917 16.8614C33.3986 16.9538 32.9829 17 32.5445 17ZM33.4969 13.7663C33.8446 13.7663 34.1621 13.7047 34.4493 13.5815C34.7366 13.4429 34.986 13.2505 35.1976 13.0041C35.4093 12.7577 35.568 12.4651 35.6739 12.1264C35.7948 11.7876 35.8553 11.4103 35.8553 10.9946C35.8553 10.163 35.6361 9.49321 35.1976 8.98506C34.7743 8.4769 34.2074 8.22283 33.4969 8.22283C33.1492 8.22283 32.8317 8.29212 32.5445 8.43071C32.2572 8.5539 32.0078 8.73868 31.7962 8.98506C31.5845 9.23143 31.4182 9.524 31.2973 9.86277C31.1914 10.2015 31.1385 10.5788 31.1385 10.9946C31.1385 11.8261 31.3577 12.4959 31.7962 13.0041C32.2346 13.5122 32.8015 13.7663 33.4969 13.7663Z" fill="#FFFEFC"/>
<path d="M46.901 16.8152V7.24423C46.901 6.10083 47.811 5.17392 48.9336 5.17392H50.6426V16.8152H46.901ZM46.833 2.07032C46.833 0.926915 47.743 4.45005e-06 48.8655 4.45005e-06H50.7333V3.74185H46.833V2.07032Z" fill="#FFFEFC"/>
<path d="M56.442 17C55.4442 17 54.5825 16.8306 53.8569 16.4918C53.1463 16.1531 52.587 15.6757 52.1788 15.0598C51.7857 14.4284 51.5665 13.6816 51.5212 12.8193H54.6732C54.7337 13.2351 54.9227 13.5738 55.2401 13.8356C55.5727 14.082 55.9733 14.2052 56.442 14.2052C56.7141 14.2052 56.9484 14.1744 57.145 14.1128C57.3415 14.0358 57.4927 13.9357 57.5985 13.8125C57.7194 13.6893 57.7799 13.543 57.7799 13.3736C57.7799 13.0965 57.6741 12.8886 57.4624 12.75C57.2508 12.6114 56.9636 12.5113 56.6007 12.4497C56.253 12.3727 55.8675 12.3034 55.4442 12.2418C55.036 12.1649 54.6203 12.0648 54.197 11.9416C53.7737 11.803 53.3807 11.6105 53.0178 11.3641C52.6701 11.1024 52.3904 10.7559 52.1788 10.3247C51.9672 9.87817 51.8613 9.30843 51.8613 8.61549C51.8613 7.90716 52.0427 7.28352 52.4056 6.74457C52.7684 6.19022 53.2597 5.75906 53.8795 5.45109C54.5145 5.14312 55.2326 4.98913 56.0338 4.98913C57.0165 4.98913 57.8555 5.15082 58.5509 5.47419C59.2615 5.79756 59.8133 6.25181 60.2063 6.83696C60.5994 7.4221 60.811 8.10734 60.8413 8.89266H57.6665C57.6363 8.63089 57.5456 8.40761 57.3944 8.22283C57.2432 8.02265 57.0543 7.86866 56.8275 7.76087C56.6159 7.65308 56.3815 7.59919 56.1245 7.59919C55.7768 7.59919 55.4896 7.66848 55.2628 7.80707C55.0512 7.94566 54.9453 8.16893 54.9453 8.4769C54.9453 8.76948 55.0512 8.98506 55.2628 9.12364C55.4896 9.26223 55.7844 9.36232 56.1472 9.42391C56.51 9.48551 56.9031 9.5471 57.3264 9.6087C57.7648 9.65489 58.1957 9.73188 58.6189 9.83968C59.0422 9.94747 59.4353 10.1245 59.7981 10.3709C60.161 10.6019 60.4482 10.9253 60.6598 11.341C60.8866 11.7568 61 12.3111 61 13.0041C61 13.6508 60.8866 14.2283 60.6598 14.7364C60.4482 15.2292 60.1383 15.6449 59.7301 15.9837C59.337 16.3071 58.8608 16.5611 58.3015 16.7459C57.7421 16.9153 57.1223 17 56.442 17Z" fill="#FFFEFC"/>
<path d="M45.1424 2.07031V16.8216H41.106V0H43.1099C44.2324 0 45.1424 0.926912 45.1424 2.07031Z" fill="#FFFEFC"/>
<path d="M30.5506 0.646725V1.06783C30.5506 2.77426 29.1925 4.15759 27.5172 4.15759H25.9832V16.8152H23.9793C22.8567 16.8152 21.9467 15.8883 21.9467 14.7449V4.1576H17.394C17.394 2.2186 18.9372 0.646735 20.8408 0.646735L30.5506 0.646725Z" fill="#FFFEFC"/>
</svg>
